<svg width="64" height="64" viewBox="0 0 64 64" fill="none" xmlns="http://www.w3.org/2000/svg">
<path fill-rule="evenodd" clip-rule="evenodd" d="M64 0H12.8V13.3019H0V63.498H50.1961V34.4543C50.3612 33.4516 50.4471 32.4221 50.4471 31.3726C50.4471 30.323 50.3612 29.2935 50.1961 28.2908V13.3019H36.9115C35.234 12.8119 33.4595 12.549 31.6236 12.549H51.2001V50.1961L64 50.1961V0ZM26.3357 13.3019H36.9115C36.9115 13.3019 36.9116 13.3019 36.9116 13.3019H26.3356C26.3356 13.3019 26.3356 13.3019 26.3357 13.3019ZM12.8001 31.3726C12.8001 22.8125 18.5139 15.587 26.3356 13.3019H12.8001V13.3019H26.3357C28.0132 12.8119 29.7877 12.549 31.6236 12.549H12.8001V13.3019H12.8V13.3019H12.549V50.949H50.196V34.4547C50.196 34.4546 50.1961 34.4545 50.1961 34.4543V28.2908C50.1961 28.2907 50.196 28.2905 50.196 28.2904V13.3019H36.9116C43.7742 15.3068 49.0141 21.1148 50.196 28.2904V34.4547C48.7252 43.3844 40.9699 50.1961 31.6236 50.1961C21.2276 50.1961 12.8001 41.7685 12.8001 31.3726ZM12.8001 31.3726V13.3019H12.8V50.1961L12.8001 31.3726ZM30.3575 27.0521V34.7953C29.68 34.6074 28.9014 34.4821 28.1804 34.5451C28.0119 34.5598 27.8426 34.5852 27.676 34.6239C27.4862 33.617 27.4507 32.3985 27.6107 30.8177C28.9877 29.6728 29.4804 28.3856 29.4802 27.208L29.4801 27.1719C29.8481 27.0068 30.1196 26.9998 30.3032 27.0387C30.3217 27.0426 30.3398 27.047 30.3575 27.0521ZM30.3575 26.0344V27.0521C30.6367 27.1309 30.8234 27.3407 30.9075 27.5187L31.3575 27.3062V42.2771C31.3575 43.9737 29.9822 45.349 28.2857 45.349C26.9042 45.349 25.7358 44.4371 25.3494 43.1825C25.1733 43.202 24.9944 43.212 24.8131 43.212C23.1863 43.212 21.7483 42.4041 20.8782 41.1677C21.5792 41.6422 22.297 41.8626 22.9938 41.8388C23.0454 41.837 23.0967 41.8339 23.1477 41.8295C23.6508 42.0746 24.2159 42.212 24.8131 42.212C24.9575 42.212 25.0996 42.204 25.2391 42.1886L26.0615 42.0973L26.3051 42.8881C26.5659 43.7352 27.3554 44.349 28.2857 44.349C29.4299 44.349 30.3575 43.4214 30.3575 42.2771V40.5829L30.9922 40.0034C30.7707 39.7608 30.5591 39.5288 30.3575 39.3044V35.8382C30.5756 35.9074 30.7804 35.9831 30.9635 36.0601L31.3509 35.1382C31.0671 35.0189 30.7273 34.8978 30.3575 34.7953V35.8382C29.7039 35.631 28.9314 35.4833 28.2674 35.5413C28.146 35.5519 28.0316 35.5691 27.9246 35.5929C27.9498 35.6692 27.9761 35.7443 28.0034 35.8183C28.4769 37.1005 29.2709 38.0941 30.3575 39.3044V40.5829L30.2537 40.6777L30.2038 40.623C28.837 39.1262 27.6984 37.8793 27.0654 36.1647L27.0506 36.1244C26.9135 36.3209 26.8119 36.5926 26.7806 36.9754C26.6394 38.7053 25.9476 40.2352 24.878 41.1042C24.3774 41.511 23.7906 41.774 23.1477 41.8295C22.5097 41.5187 21.9714 41.0349 21.5939 40.4392C22.0897 40.7402 22.5496 40.8534 22.9596 40.8394C23.4167 40.8238 23.8528 40.6487 24.2474 40.3281C25.0476 39.6779 25.658 38.4364 25.7839 36.8941C25.8461 36.1324 26.1286 35.5503 26.5922 35.1518C26.6399 35.1108 26.6889 35.0722 26.7391 35.036C26.5348 34.0861 26.4638 32.9991 26.5382 31.6884C26.8059 31.4595 27.1009 31.2193 27.4264 30.9659C27.4895 30.9168 27.5509 30.8674 27.6107 30.8177C27.6632 30.2995 27.7366 29.7423 27.8326 29.1409C28.132 28.7239 28.309 28.3099 28.4003 27.9141C28.2404 28.0392 28.0856 28.1551 27.9358 28.2617C27.9635 27.8272 27.953 27.416 27.9092 27.0274C27.9577 26.9886 28.0069 26.9487 28.057 26.9077C28.1827 26.8046 28.3066 26.7111 28.4285 26.627C28.3084 25.9465 27.9988 25.3691 27.7126 25.014L28.4913 24.3865C28.8213 24.796 29.1668 25.4129 29.3492 26.1502C29.7082 26.0288 30.0451 25.9943 30.3575 26.0344ZM22.0275 21.3829C22.7226 20.6375 23.7134 20.1713 24.8131 20.1713C25.0145 20.1713 25.2116 20.1869 25.4034 20.2167L26.1137 20.3269L26.4446 19.6888C26.7907 19.0212 27.4862 18.5686 28.2857 18.5686C29.4299 18.5686 30.3575 19.4962 30.3575 20.6405V26.0344C30.4091 26.041 30.46 26.0497 30.5102 26.0603C30.8581 26.1339 31.1398 26.2956 31.3575 26.4895V27.3062L31.8118 27.0917C31.7186 26.8944 31.5679 26.6769 31.3575 26.4895V20.6405C31.3575 18.9439 29.9822 17.5686 28.2857 17.5686C27.0982 17.5686 26.0681 18.2424 25.5568 19.2285C25.3144 19.1909 25.0661 19.1713 24.8131 19.1713C22.1577 19.1713 20.005 21.324 20.005 23.9795C20.005 24.5153 20.0926 25.0307 20.2544 25.5121C20.3621 25.8326 20.5027 26.1381 20.6721 26.4244C20.3536 26.537 20.0487 26.6787 19.7607 26.8461C18.1497 27.7829 17.0666 29.5277 17.0666 31.5256C17.0666 33.746 18.4046 35.654 20.3183 36.4873C20.3418 36.4976 20.3654 36.5076 20.3891 36.5175C20.3802 36.5385 20.3714 36.5596 20.3627 36.5807C20.1321 37.1429 20.005 37.7586 20.005 38.4039C20.005 39.4232 20.3221 40.3684 20.8632 41.1462L20.8579 41.1539L20.8782 41.1677L20.8632 41.1462L21.4226 40.3285C21.4802 40.3679 21.5373 40.4048 21.5939 40.4392C21.2209 39.8504 21.005 39.1524 21.005 38.4039C21.005 37.8717 21.1136 37.3675 21.3088 36.9102L21.7043 35.9839L20.7752 35.5951L20.7338 35.5775C21.4964 35.5136 22.344 35.107 23.1052 34.4866C22.7979 35.298 22.6705 36.121 22.5271 37.0471L22.5193 37.0976L23.5075 37.2507C23.7034 35.9859 23.8432 35.1047 24.3347 34.1966L24.3347 34.1965C24.618 34.4478 24.8484 34.8965 24.9671 35.2764L25.9216 34.9781C25.7715 34.498 25.4438 33.799 24.912 33.3758L24.8885 33.3574C25.2786 32.8568 25.8064 32.3144 26.5382 31.6884C26.563 31.2499 26.6042 30.7863 26.662 30.2944C26.6892 30.273 26.7165 30.2515 26.7441 30.23C26.7666 30.2123 26.7894 30.1946 26.8122 30.1768C27.2509 29.8354 27.584 29.4871 27.8326 29.1409L27.8444 29.0677C27.8891 28.7906 27.9193 28.522 27.9358 28.2617C27.5433 28.5413 27.1848 28.7581 26.856 28.9153L26.8572 28.9082C26.9252 28.4869 26.9549 28.0911 26.9507 27.7193C27.2288 27.5444 27.5468 27.3175 27.9092 27.0274C27.7108 25.2679 26.8275 23.9707 25.6883 23.0583C25.6334 23.0144 25.578 22.9713 25.522 22.9291C25.8141 22.2724 26.2268 21.8988 26.6374 21.688C27.2997 21.3482 28.0573 21.3801 28.5478 21.5216L28.8249 20.5608C28.1579 20.3684 27.1258 20.3135 26.1809 20.7983C25.5797 21.1069 25.0494 21.6153 24.6767 22.3772C23.7995 21.8815 22.8639 21.5645 22.0275 21.3829ZM21.4038 22.281C22.2983 22.43 23.3704 22.7596 24.3313 23.333C24.2694 23.576 24.2197 23.8367 24.1837 24.1159C23.9205 26.1556 23.4526 27.305 22.9316 27.9106C22.4485 28.472 21.8851 28.6052 21.2224 28.4948L21.058 29.4812C21.9981 29.6378 22.9372 29.4372 23.6896 28.5628C24.404 27.7326 24.9044 26.3444 25.1755 24.2438C25.1878 24.1483 25.2018 24.056 25.2175 23.9668C26.2023 24.8121 26.9316 26.0138 26.9507 27.7193C26.4788 28.016 26.1216 28.1629 25.8565 28.2136C25.6479 28.2536 25.5196 28.2295 25.4379 28.1945C25.3557 28.1592 25.2757 28.0935 25.197 27.9741L24.362 28.5243C24.5224 28.7677 24.7427 28.9844 25.0437 29.1135C25.3451 29.2428 25.6827 29.2651 26.0445 29.1958C26.2935 29.1481 26.5629 29.0554 26.856 28.9153C26.778 29.3988 26.7134 29.8577 26.662 30.2944C25.3556 31.3243 24.4897 32.1838 23.9009 33.0092C23.8867 33.0093 23.8724 33.0098 23.858 33.0104C23.4406 33.0282 23.0349 33.2209 22.6483 33.5629C21.8774 34.245 21.0912 34.5783 20.5462 34.5862C20.2846 34.59 20.1112 34.5202 19.9997 34.4186C19.889 34.3178 19.7785 34.1305 19.7508 33.7791L18.7539 33.8576L18.7572 33.8958C18.3198 33.211 18.0666 32.3976 18.0666 31.5256C18.0666 29.6075 19.2919 27.9731 21.0055 27.3672L22.1521 26.9618L21.5328 25.9152C21.1976 25.3487 21.005 24.6881 21.005 23.9795C21.005 23.3691 21.1486 22.7923 21.4038 22.281ZM21.4038 22.281C21.5682 21.9516 21.7789 21.6494 22.0275 21.3829C21.6292 21.2965 21.2535 21.2407 20.9172 21.2109L20.829 22.207C21.0094 22.223 21.2021 22.2474 21.4038 22.281ZM18.7572 33.8958C19.2299 34.6362 19.9179 35.2262 20.7338 35.5775C20.6756 35.5824 20.618 35.5853 20.5608 35.5861C20.113 35.5927 19.6707 35.4715 19.3264 35.158C18.9896 34.8513 18.8049 34.4135 18.7572 33.8958ZM38.16 20.8204L37.9164 20.0295C37.6556 19.1825 36.8661 18.5687 35.9359 18.5687C34.7916 18.5687 33.864 19.4963 33.864 20.6405V22.3348L33.2293 22.9143C33.4508 23.1569 33.6624 23.3888 33.864 23.6133V27.0794C33.6459 27.0103 33.4412 26.9345 33.258 26.8575L32.8706 27.7794C33.1544 27.8987 33.4942 28.0199 33.864 28.1224L33.864 35.8656C33.5849 35.7867 33.3982 35.5769 33.3141 35.3989L32.864 35.6115L32.864 20.6405C32.864 18.944 34.2393 17.5687 35.9359 17.5687C37.3173 17.5687 38.4857 18.4805 38.8721 19.7352C39.0482 19.7156 39.2272 19.7056 39.4085 19.7056C41.0353 19.7056 42.4735 20.5136 43.3435 21.7501C42.6424 21.2755 41.9245 21.055 41.2278 21.0789C41.1761 21.0806 41.1248 21.0837 41.0739 21.0881C40.5708 20.8431 40.0057 20.7056 39.4085 20.7056C39.2641 20.7056 39.122 20.7136 38.9824 20.7291L38.16 20.8204ZM42.6278 22.4786C42.2503 21.8828 41.712 21.3989 41.0739 21.0881C40.431 21.1437 39.8442 21.4067 39.3435 21.8134C38.2739 22.6825 37.5821 24.2123 37.4409 25.9422C37.4096 26.3251 37.3081 26.5967 37.1709 26.7932L37.1562 26.753C36.5231 25.0383 35.3845 23.7915 34.0177 22.2947L33.9678 22.24L33.864 22.3348V23.6133C34.9506 24.8235 35.7446 25.8171 36.2181 27.0993C36.2454 27.1734 36.2717 27.2485 36.2969 27.3248C36.1899 27.3485 36.0755 27.3657 35.9541 27.3763C35.2901 27.4343 34.5176 27.2866 33.864 27.0794V28.1224C34.5415 28.3102 35.3201 28.4355 36.0411 28.3725C36.2096 28.3578 36.3789 28.3324 36.5455 28.2937C36.7353 29.3007 36.7709 30.5192 36.6108 32.1C35.2339 33.2449 34.7413 34.532 34.7414 35.7096L34.7416 35.7457C34.3736 35.9108 34.102 35.9178 33.9184 35.879C33.8999 35.8751 33.8818 35.8706 33.864 35.8656V36.8832C33.8125 36.8766 33.7616 36.868 33.7114 36.8573C33.3635 36.7837 33.0818 36.622 32.864 36.428V35.6115L32.4099 35.8259C32.503 36.0232 32.6537 36.2407 32.864 36.428V42.2771C32.864 43.9737 34.2393 45.349 35.9359 45.349C37.1233 45.349 38.1534 44.6752 38.6647 43.6891C38.9071 43.7267 39.1555 43.7463 39.4085 43.7463C42.0639 43.7463 44.2166 41.5936 44.2166 38.9381C44.2166 38.4023 44.129 37.8869 43.9672 37.4055C43.8595 37.085 43.7189 36.7795 43.5495 36.4932C43.868 36.3805 44.1729 36.2389 44.4608 36.0715C46.0718 35.1347 47.1549 33.3899 47.1549 31.3921C47.1549 29.1716 45.8169 27.2636 43.9032 26.4303C43.8797 26.4201 43.8561 26.41 43.8325 26.4001C43.8414 26.3792 43.8502 26.3582 43.8589 26.3371C44.0895 25.7748 44.2166 25.1591 44.2166 24.5138C44.2166 23.4944 43.8994 22.5492 43.3584 21.7714L43.3636 21.7638L43.3435 21.7501L43.3584 21.7714L42.7989 22.5891C42.7414 22.5497 42.6844 22.5129 42.6278 22.4786ZM43.4878 27.3401L43.4464 27.3226L42.5173 26.9337L42.9128 26.0075C43.1081 25.5501 43.2166 25.0459 43.2166 24.5138C43.2166 23.7653 43.0007 23.0673 42.6278 22.4786C42.1319 22.1775 41.6719 22.0643 41.2619 22.0783C40.8049 22.0939 40.3687 22.2689 39.9741 22.5895C39.1739 23.2397 38.5635 24.4813 38.4376 26.0236C38.3754 26.7853 38.0929 27.3673 37.6293 27.7659C37.5816 27.8069 37.5326 27.8454 37.4824 27.8816C37.6867 28.8315 37.7577 29.9186 37.6833 31.2293C37.4157 31.4582 37.1207 31.6984 36.7952 31.9517C36.732 32.0009 36.6706 32.0503 36.6108 32.1C36.5583 32.6183 36.4848 33.1755 36.3889 33.777C36.0896 34.1939 35.9127 34.6078 35.8213 35.0036C35.9812 34.8785 36.1359 34.7626 36.2857 34.656C36.2581 35.0905 36.2685 35.5017 36.3123 35.8903C36.2639 35.9291 36.2147 35.9689 36.1646 36.01C36.0389 36.1131 35.915 36.2065 35.7931 36.2906C35.9132 36.9712 36.2228 37.5486 36.509 37.9037L35.7304 38.5312C35.4003 38.1216 35.0548 37.5047 34.8724 36.7675C34.5134 36.8888 34.1764 36.9233 33.864 36.8832V42.2771C33.864 43.4214 34.7916 44.349 35.9359 44.349C36.7353 44.349 37.4308 43.8964 37.7769 43.2288L38.1078 42.5906L38.8182 42.701C39.01 42.7307 39.2071 42.7463 39.4085 42.7463C40.5082 42.7463 41.499 42.2802 42.1941 41.5347C42.5923 41.6212 42.968 41.677 43.3043 41.7067L43.3925 40.7106C43.2122 40.6947 43.0195 40.6702 42.8178 40.6366C43.073 40.1253 43.2166 39.5485 43.2166 38.9381C43.2166 38.2295 43.024 37.5688 42.6888 37.0024L42.0695 35.9558L43.2161 35.5504C44.9296 34.9445 46.1549 33.3101 46.1549 31.3921C46.1549 30.5201 45.9017 29.7068 45.4645 29.022C45.4167 28.5042 45.2321 28.0664 44.8952 27.7597C44.551 27.4462 44.1086 27.325 43.6608 27.3315C43.6037 27.3324 43.546 27.3353 43.4878 27.3401ZM37.5595 32.6233C37.6173 32.1315 37.6585 31.6679 37.6833 31.2293C38.4152 30.6033 38.943 30.0609 39.3331 29.5603L39.3096 29.5418C38.7779 29.1187 38.4501 28.4197 38.3 27.9395L39.2545 27.6412C39.3732 28.0212 39.6036 28.4698 39.8869 28.7212L39.8869 28.7211C40.3784 27.813 40.5182 26.9317 40.7141 25.6669L41.7023 25.82L41.6945 25.8706C41.5511 26.7966 41.4237 27.6197 41.1164 28.4311C41.8776 27.8106 42.7252 27.4041 43.4878 27.3401C44.3037 27.6915 44.9917 28.2816 45.4645 29.022L45.4677 29.06L44.4708 29.1386C44.4431 28.7872 44.3326 28.5998 44.2219 28.499C44.1104 28.3974 43.937 28.3276 43.6754 28.3314C43.1304 28.3394 42.3442 28.6727 41.5733 29.3548C41.1867 29.6968 40.781 29.8894 40.3636 29.9073C40.3588 29.9075 40.354 29.9077 40.3492 29.9078C40.3397 29.9081 40.3302 29.9084 40.3207 29.9085C39.7319 30.7339 38.866 31.5934 37.5595 32.6233ZM37.3655 34.0024C37.4435 33.5189 37.5081 33.06 37.5595 32.6233C37.5443 32.6353 37.529 32.6473 37.5137 32.6593C37.4792 32.6864 37.4445 32.7136 37.4094 32.7409C36.9707 33.0823 36.6375 33.4307 36.3889 33.777L36.3772 33.8499C36.3324 34.1271 36.3022 34.3957 36.2857 34.656C36.6782 34.3764 37.0367 34.1596 37.3655 34.0024ZM37.2708 35.1984C36.9927 35.3733 36.6747 35.6003 36.3123 35.8903C36.5108 37.6498 37.3941 38.9469 38.5332 39.8593C38.5881 39.9033 38.6436 39.9463 38.6995 39.9885C38.4074 40.6453 37.9947 41.0189 37.5841 41.2296C36.9218 41.5694 36.1642 41.5375 35.6737 41.396L35.3966 42.3569C36.0636 42.5493 37.0957 42.6042 38.0406 42.1193C38.6419 41.8108 39.1721 41.3023 39.5448 40.5404C40.422 41.0361 41.3576 41.3531 42.1941 41.5347C42.4426 41.2682 42.6534 40.966 42.8178 40.6366C41.9233 40.4876 40.8511 40.158 39.8903 39.5847C39.9521 39.3416 40.0018 39.081 40.0378 38.8018C40.301 36.762 40.7689 35.6126 41.2899 35.0071C41.773 34.4456 42.3364 34.3124 42.9991 34.4229L43.1635 33.4365C42.2235 33.2798 41.2843 33.4805 40.5319 34.3548C39.8175 35.1851 39.3171 36.5733 39.0461 38.6738C39.0337 38.7693 39.0197 38.8617 39.004 38.9509C38.0192 38.1056 37.2899 36.9039 37.2708 35.1984ZM37.2708 35.1984C37.7427 34.9017 38.1 34.7548 38.3652 34.704C38.5737 34.6641 38.702 34.6881 38.7837 34.7232C38.8659 34.7584 38.9459 34.8241 39.0246 34.9435L39.8596 34.3934C39.6992 34.1499 39.4789 33.9332 39.1779 33.8041C38.8765 33.6749 38.5389 33.6526 38.1771 33.7219C37.9281 33.7695 37.6586 33.8623 37.3655 34.0024L37.3644 34.0094C37.2963 34.4307 37.2667 34.8266 37.2708 35.1984Z" fill="url(#paint0_linear_105_76)"/>
<defs>
<linearGradient id="paint0_linear_105_76" x1="64" y1="0" x2="10.2097" y2="57.4925" gradientUnits="userSpaceOnUse">
<stop stop-color="#4B86FA"/>
<stop offset="1" stop-color="#BAC7E0"/>
</linearGradient>
</defs>
</svg>
